<?xml version="1.0" encoding="UTF-8" standalone="no"?>
<svg
   xmlns:dc="http://purl.org/dc/elements/1.1/"
   xmlns:cc="http://creativecommons.org/ns#"
   xmlns:rdf="http://www.w3.org/1999/02/22-rdf-syntax-ns#"
   xmlns:svg="http://www.w3.org/2000/svg"
   xmlns="http://www.w3.org/2000/svg"
   xmlns:sodipodi="http://sodipodi.sourceforge.net/DTD/sodipodi-0.dtd"
   xmlns:inkscape="http://www.inkscape.org/namespaces/inkscape"
   width="83.314461"
   height="99.977364"
   viewBox="0 0 83.314461 99.977364"
   version="1.1"
   id="svg16"
   sodipodi:docname="apple-logo.svg"
   inkscape:version="0.92.3 (2405546, 2018-03-11)">
  <metadata
     id="metadata22">
    <rdf:RDF>
      <cc:Work
         rdf:about="">
        <dc:format>image/svg+xml</dc:format>
        <dc:type
           rdf:resource="http://purl.org/dc/dcmitype/StillImage" />
      </cc:Work>
    </rdf:RDF>
  </metadata>
  <defs
     id="defs20" />
  <sodipodi:namedview
     pagecolor="#ffffff"
     bordercolor="#666666"
     borderopacity="1"
     objecttolerance="10"
     gridtolerance="10"
     guidetolerance="10"
     inkscape:pageopacity="0"
     inkscape:pageshadow="2"
     inkscape:window-width="1226"
     inkscape:window-height="610"
     id="namedview18"
     showgrid="false"
     inkscape:zoom="3.337544"
     inkscape:cx="30.883393"
     inkscape:cy="43.633556"
     inkscape:window-x="257"
     inkscape:window-y="87"
     inkscape:window-maximized="0"
     inkscape:current-layer="svg16" />
  <g
     id="g14"
     style="fill:none;fill-rule:evenodd"
     transform="translate(0.5,-0.02264399)">
    <g
       id="g12"
       style="fill:#000000">
      <g
         id="g10">
        <g
           id="g8">
          <g
             id="g6">
            <g
               id="g4">
              <path
                 d="M 68.557,53.58 C 68.43,40.99 78.872,34.95 79.34,34.644 73.47,26.104 64.33,24.931 61.076,24.798 53.302,24.012 45.9,29.356 41.956,29.356 c -3.936,0 -10.03,-4.443 -16.475,-4.33 -8.48,0.126 -16.296,4.91 -20.66,12.467 -8.806,15.21 -2.252,37.75 6.33,50.093 4.195,6.034 9.198,12.823 15.762,12.575 6.326,-0.25 8.713,-4.074 16.36,-4.074 7.65,0 9.797,4.074 16.49,3.946 6.802,-0.123 11.115,-6.148 15.276,-12.206 4.817,-7.01 6.8,-13.797 6.917,-14.14 -0.148,-0.07 -13.262,-5.07 -13.398,-20.105 z M 55.983,16.628 C 59.463,12.421 61.823,6.575 61.181,0.756 56.16,0.958 50.078,4.08 46.47,8.282 c -3.23,3.73 -6.057,9.67 -5.3,15.383 5.605,0.433 11.32,-2.84 14.813,-7.037 z"
                 id="path2"
                 inkscape:connector-curvature="0" />
            </g>
          </g>
        </g>
      </g>
    </g>
  </g>
</svg>
