<?xml version="1.0" encoding="UTF-8" standalone="no"?>
<!-- Generator: Adobe Illustrator 19.0.0, SVG Export Plug-In . SVG Version: 6.00 Build 0)  -->

<svg
   xmlns:dc="http://purl.org/dc/elements/1.1/"
   xmlns:cc="http://creativecommons.org/ns#"
   xmlns:rdf="http://www.w3.org/1999/02/22-rdf-syntax-ns#"
   xmlns:svg="http://www.w3.org/2000/svg"
   xmlns="http://www.w3.org/2000/svg"
   xmlns:sodipodi="http://sodipodi.sourceforge.net/DTD/sodipodi-0.dtd"
   xmlns:inkscape="http://www.inkscape.org/namespaces/inkscape"
   version="1.1"
   id="Layer_1"
   x="0px"
   y="0px"
   viewBox="0 0 292.86851 100.30516"
   xml:space="preserve"
   sodipodi:docname="evoplex-tagline.svg"
   width="292.8685"
   height="100.30515"
   inkscape:version="0.92.3 (2405546, 2018-03-11)"
   inkscape:export-filename="/home/cardinot/dev/evoplex/evoplex.github.io/website/static/logos/evoplex-tagline.png"
   inkscape:export-xdpi="299.92984"
   inkscape:export-ydpi="299.92984"><metadata
   id="metadata61"><rdf:RDF><cc:Work
       rdf:about=""><dc:format>image/svg+xml</dc:format><dc:type
         rdf:resource="http://purl.org/dc/dcmitype/StillImage" /><dc:title /></cc:Work></rdf:RDF></metadata><defs
   id="defs59" /><sodipodi:namedview
   pagecolor="#ffffff"
   bordercolor="#666666"
   borderopacity="1"
   objecttolerance="10"
   gridtolerance="10"
   guidetolerance="10"
   inkscape:pageopacity="0"
   inkscape:pageshadow="2"
   inkscape:window-width="1167"
   inkscape:window-height="474"
   id="namedview57"
   showgrid="false"
   inkscape:zoom="1.8968012"
   inkscape:cx="42.00902"
   inkscape:cy="24.366711"
   inkscape:window-x="153"
   inkscape:window-y="183"
   inkscape:window-maximized="0"
   inkscape:current-layer="Layer_1" />

<g
   id="g837"
   transform="translate(-2.4122429,-11.772125)"><g
   aria-label="Evoplex"
   style="font-style:normal;font-variant:normal;font-weight:500;font-stretch:normal;font-size:48px;line-height:25px;font-family:Roboto;-inkscape-font-specification:'Roboto Medium';letter-spacing:0px;word-spacing:0px;fill:#4285f4;fill-opacity:1;stroke:none;stroke-width:1.39999998;stroke-linecap:butt;stroke-linejoin:round;stroke-miterlimit:4;stroke-dasharray:none;stroke-opacity:1"
   id="text5109"><path
     d="m 125.10968,44.584145 h -12.9375 v 8.132812 h 15.28125 v 6.328125 h -23.50781 v -34.125 h 23.55469 v 6.351563 h -15.32813 v 7.195312 h 12.9375 z"
     style="font-style:normal;font-variant:normal;font-weight:900;font-stretch:normal;font-size:48px;font-family:Roboto;-inkscape-font-specification:'Roboto Heavy';fill:#4285f4;fill-opacity:1;stroke:none;stroke-width:1.39999998;stroke-linejoin:round;stroke-miterlimit:4;stroke-dasharray:none;stroke-opacity:1"
     id="path824"
     inkscape:connector-curvature="0" /><path
     d="m 140.03937,49.646645 4.00781,-15.960938 h 8.32031 l -8.27343,25.359375 h -8.0625 l -8.27344,-25.359375 h 8.34375 z"
     style="font-style:normal;font-variant:normal;font-weight:900;font-stretch:normal;font-size:48px;font-family:Roboto;-inkscape-font-specification:'Roboto Heavy';fill:#4285f4;fill-opacity:1;stroke:none;stroke-width:1.39999998;stroke-linejoin:round;stroke-miterlimit:4;stroke-dasharray:none;stroke-opacity:1"
     id="path826"
     inkscape:connector-curvature="0" /><path
     d="m 153.39874,46.13102 q 0,-3.796875 1.47657,-6.75 1.47656,-2.976563 4.24218,-4.570313 2.76563,-1.59375 6.49219,-1.59375 5.69531,0 8.97656,3.539063 3.28125,3.515625 3.28125,9.585937 v 0.28125 q 0,5.929688 -3.30468,9.421875 -3.28125,3.46875 -8.90625,3.46875 -5.41407,0 -8.69532,-3.234375 -3.28125,-3.257812 -3.53906,-8.8125 z m 7.89844,0.492187 q 0,3.515625 1.10156,5.15625 1.10157,1.640625 3.25782,1.640625 4.21875,0 4.3125,-6.492187 V 46.13102 q 0,-6.820313 -4.35938,-6.820313 -3.96094,0 -4.28906,5.882813 z"
     style="font-style:normal;font-variant:normal;font-weight:900;font-stretch:normal;font-size:48px;font-family:Roboto;-inkscape-font-specification:'Roboto Heavy';fill:#4285f4;fill-opacity:1;stroke:none;stroke-width:1.39999998;stroke-linejoin:round;stroke-miterlimit:4;stroke-dasharray:none;stroke-opacity:1"
     id="path828"
     inkscape:connector-curvature="0" /><path
     d="m 204.93781,46.552895 q 0,5.90625 -2.67188,9.445312 -2.64844,3.515625 -7.17187,3.515625 -3.49219,0 -5.74219,-2.554687 v 11.835937 h -7.89844 V 33.685707 h 7.38281 l 0.23438,2.34375 q 2.27344,-2.8125 5.97656,-2.8125 4.6875,0 7.28906,3.46875 2.60157,3.445313 2.60157,9.492188 z m -7.89844,-0.492188 q 0,-6.75 -3.9375,-6.75 -2.8125,0 -3.75,2.015625 v 9.984375 q 1.03125,2.109375 3.79687,2.109375 3.77344,0 3.89063,-6.515625 z"
     style="font-style:normal;font-variant:normal;font-weight:900;font-stretch:normal;font-size:48px;font-family:Roboto;-inkscape-font-specification:'Roboto Heavy';fill:#4285f4;fill-opacity:1;stroke:none;stroke-width:1.39999998;stroke-linejoin:round;stroke-miterlimit:4;stroke-dasharray:none;stroke-opacity:1"
     id="path830"
     inkscape:connector-curvature="0" /><path
     d="m 216.72687,59.045082 h -7.92188 v -36 h 7.92188 z"
     style="font-style:normal;font-variant:normal;font-weight:900;font-stretch:normal;font-size:48px;font-family:Roboto;-inkscape-font-specification:'Roboto Heavy';fill:#4285f4;fill-opacity:1;stroke:none;stroke-width:1.39999998;stroke-linejoin:round;stroke-miterlimit:4;stroke-dasharray:none;stroke-opacity:1"
     id="path832"
     inkscape:connector-curvature="0" /><path
     d="m 233.88312,59.513832 q -5.83594,0 -9.44531,-3.46875 -3.60938,-3.492187 -3.60938,-9.070312 v -0.65625 q 0,-3.890625 1.42969,-6.867188 1.45312,-2.976562 4.21875,-4.59375 2.76562,-1.640625 6.5625,-1.640625 5.34375,0 8.4375,3.328125 3.09375,3.304688 3.09375,9.234375 v 3.070313 h -15.70313 q 0.42188,2.132812 1.85157,3.351562 1.42968,1.21875 3.70312,1.21875 3.75,0 5.85938,-2.625 l 3.60937,4.265625 q -1.47656,2.039063 -4.19531,3.257813 -2.69531,1.195312 -5.8125,1.195312 z m -0.89063,-20.203125 q -3.46875,0 -4.125,4.59375 h 7.96875 v -0.609375 q 0.0469,-1.898437 -0.96093,-2.929687 -1.00782,-1.054688 -2.88282,-1.054688 z"
     style="font-style:normal;font-variant:normal;font-weight:900;font-stretch:normal;font-size:48px;font-family:Roboto;-inkscape-font-specification:'Roboto Heavy';fill:#4285f4;fill-opacity:1;stroke:none;stroke-width:1.39999998;stroke-linejoin:round;stroke-miterlimit:4;stroke-dasharray:none;stroke-opacity:1"
     id="path834"
     inkscape:connector-curvature="0" /><path
     d="m 258.04718,40.670082 3.67969,-6.984375 h 8.20312 l -6.67968,12.351563 7.00781,13.007812 h -8.25 l -3.98438,-7.5 -3.91406,7.5 h -8.29687 l 7.03125,-13.007812 -6.65625,-12.351563 h 8.29687 z"
     style="font-style:normal;font-variant:normal;font-weight:900;font-stretch:normal;font-size:48px;font-family:Roboto;-inkscape-font-specification:'Roboto Heavy';fill:#4285f4;fill-opacity:1;stroke:none;stroke-width:1.39999998;stroke-linejoin:round;stroke-miterlimit:4;stroke-dasharray:none;stroke-opacity:1"
     id="path836"
     inkscape:connector-curvature="0" /></g>
<g
   style="display:inline"
   id="g5195"
   transform="matrix(0.69071992,0,0,0.69071992,23.434877,11.772126)"><path
     d="m 66.481458,43.431204 -4.575987,-2.477142 -18.722933,0.13167 -0.0915,-20.05061 -2.094548,-4.541946 0.198373,39.655086 -21.688595,19.255664 3.19301,3.070311 19.207425,-19.261733 41.912322,-0.412083 -4.51947,-2.364463 -36.046634,0.269355 -0.05823,-13.119611 z"
     id="polygon2"
     inkscape:connector-curvature="0"
     sodipodi:nodetypes="cccccccccccccc"
     style="display:inline;fill:#a1c2fa;fill-opacity:1;stroke-width:0.88575321" /><circle
     style="display:inline;fill:none;fill-opacity:1;stroke:#4285f4;stroke-width:4.94382095;stroke-miterlimit:4;stroke-dasharray:none;stroke-opacity:1"
     id="path4552"
     cx="49.43821"
     cy="49.43821"
     r="46.966301"
     inkscape:export-xdpi="497.10538"
     inkscape:export-ydpi="497.10538" /><g
     inkscape:groupmode="layer"
     style="display:inline"
     transform="translate(15.745442,0.73679789)"
     inkscape:label="Layer 1"
     id="layer1"><path
       inkscape:connector-curvature="0"
       id="path3674"
       d="m 26.231422,10.019627 a 5.4822038,5.4822038 0 0 0 -5.454983,5.509834 5.4822038,5.4822038 0 0 0 5.509833,5.454984 5.4822038,5.4822038 0 0 0 5.454985,-5.509835 5.4822038,5.4822038 0 0 0 -5.509835,-5.454983 z"
       style="fill:#a1c2fa;fill-opacity:1;fill-rule:evenodd;stroke:none;stroke-width:1.03504002px;stroke-linecap:butt;stroke-linejoin:miter;stroke-opacity:1" /><path
       inkscape:connector-curvature="0"
       id="path3674-3"
       d="m 50.520422,35.904034 a 5.4822033,5.4822033 0 0 0 -5.454983,5.509835 5.4822033,5.4822033 0 0 0 5.509834,5.454984 5.4822033,5.4822033 0 0 0 5.454984,-5.509835 5.4822033,5.4822033 0 0 0 -5.509835,-5.454984 z"
       style="fill:#4285f4;fill-opacity:1;fill-rule:evenodd;stroke:none;stroke-width:1.0350399px;stroke-linecap:butt;stroke-linejoin:miter;stroke-opacity:1" /><path
       inkscape:connector-curvature="0"
       id="path3674-3-6"
       d="m 67.743421,51.258039 a 5.4822024,5.4822024 0 0 0 -5.454982,5.509832 5.4822024,5.4822024 0 0 0 5.509833,5.454983 5.4822024,5.4822024 0 0 0 5.454985,-5.509833 5.4822024,5.4822024 0 0 0 -5.509836,-5.454982 z"
       style="fill:#a1c2fa;fill-opacity:1;fill-rule:evenodd;stroke:none;stroke-width:1.03503978px;stroke-linecap:butt;stroke-linejoin:miter;stroke-opacity:1" /><path
       inkscape:connector-curvature="0"
       id="path3674-3-6-7"
       d="M 9.8315668,65.535429 A 6.8527526,6.8527526 0 0 0 3.0128375,72.422731 6.8527526,6.8527526 0 0 0 9.9001257,79.241466 6.8527526,6.8527526 0 0 0 16.71886,72.354164 6.8527526,6.8527526 0 0 0 9.8315668,65.535429 Z"
       style="fill:#a1c2fa;fill-opacity:1;fill-rule:evenodd;stroke:none;stroke-width:1.29379928px;stroke-linecap:butt;stroke-linejoin:miter;stroke-opacity:1" /></g></g></g><g
   aria-label="agent-based modeling, the right way!"
   style="font-style:normal;font-variant:normal;font-weight:normal;font-stretch:normal;font-size:29.33333397px;line-height:28px;font-family:Lato;-inkscape-font-specification:Lato;letter-spacing:0px;word-spacing:0px;fill:#4285f4;fill-opacity:1;stroke:none;stroke-width:1px;stroke-linecap:butt;stroke-linejoin:miter;stroke-opacity:1"
   id="text823"><path
     d="m 6.1419684,96.294151 q -0.045573,-0.346354 -0.027344,-0.692708 l 0.082031,-0.683594 Q 5.5130622,95.65613 4.6289476,96.075401 3.7539477,96.494672 2.7331144,96.476443 1.4844165,96.458214 0.70056236,95.692589 -0.0741772,94.917849 0.00785405,93.751183 0.08077071,92.775922 0.67321861,92.064985 1.2747811,91.344933 2.3776456,90.953006 3.4805102,90.551964 4.8476976,90.551964 l 2.0143229,0.0091 L 7.026083,89.43087 Q 7.135458,88.419152 6.588583,87.808475 6.041708,87.197797 4.9753018,87.161339 3.899781,87.14311 3.0976977,87.6991 2.304729,88.245974 2.1042081,89.148318 H 1.0378019 q 0.1822917,-1.294271 1.3307292,-2.105468 1.1484374,-0.820313 2.7161457,-0.802084 1.5221354,0.03646 2.3424478,0.920573 0.8294271,0.884115 0.6744792,2.296875 l -0.8203125,4.958333 -0.072917,0.792969 q -0.027344,0.492187 0.072917,0.97526 l -0.018229,0.109375 z M 2.915406,95.519412 q 1.0026042,0.03646 1.9140625,-0.473959 0.9205729,-0.519531 1.5221353,-1.467447 L 6.7253017,91.39962 4.9844164,91.39052 q -1.6588541,0 -2.7070312,0.592448 -1.048177,0.583333 -1.157552,1.677083 -0.082031,0.802083 0.4192708,1.321614 0.5104166,0.519532 1.376302,0.537761 z"
     style="font-style:italic;font-variant:normal;font-weight:300;font-stretch:normal;font-size:18.66666603px;font-family:Roboto;-inkscape-font-specification:'Roboto Light Italic';fill:#4285f4;fill-opacity:1"
     id="path839"
     inkscape:connector-curvature="0" /><path
     d="m 14.727905,86.240766 q 0.884115,0.02734 1.613282,0.419271 0.729166,0.391927 1.148437,1.19401 l 0.33724,-1.421875 h 1.011718 l -1.658854,9.688802 q -0.173177,1.239584 -0.783854,2.1875 -0.610677,0.947917 -1.567708,1.449219 -0.947917,0.510417 -2.114584,0.473957 -0.929687,-0.0182 -1.777343,-0.464843 -0.856771,-0.455729 -1.3763022,-1.266927 l 0.6744792,-0.63802 q 0.938802,1.41276 2.451823,1.449218 1.348958,0.03646 2.251302,-0.820312 0.911458,-0.847656 1.148437,-2.315104 l 0.236979,-1.148438 q -1.3125,1.503906 -3.16276,1.449219 -1.385417,-0.03646 -2.160156,-1.057292 -0.765625,-1.029948 -0.802083,-2.798177 -0.05469,-1.63151 0.546875,-3.226562 0.601562,-1.595052 1.63151,-2.388021 1.039062,-0.802083 2.351562,-0.765625 z m -3.390625,5.286458 -0.05469,0.847657 q -0.02734,1.494791 0.519531,2.315104 0.546875,0.811198 1.613281,0.847656 0.911459,0.03646 1.704427,-0.428385 0.792969,-0.464844 1.367188,-1.376303 l 0.774739,-4.602864 q -0.246093,-0.884115 -0.85677,-1.394531 -0.601563,-0.519531 -1.54948,-0.546875 -1.394531,-0.04557 -2.315104,1.075521 -0.911458,1.121093 -1.203125,3.26302 z"
     style="font-style:italic;font-variant:normal;font-weight:300;font-stretch:normal;font-size:18.66666603px;font-family:Roboto;-inkscape-font-specification:'Roboto Light Italic';fill:#4285f4;fill-opacity:1"
     id="path841"
     inkscape:connector-curvature="0" /><path
     d="m 23.860717,96.476443 q -1.184896,-0.01823 -2.050781,-0.65625 -0.865885,-0.647135 -1.276042,-1.75 -0.401041,-1.111979 -0.282552,-2.397135 l 0.02734,-0.309896 q 0.127604,-1.367188 0.811198,-2.597656 0.683594,-1.239584 1.731771,-1.886719 1.048177,-0.65625 2.242187,-0.628906 1.102865,0.01823 1.859375,0.601562 0.765625,0.583334 1.111979,1.622396 0.346354,1.039063 0.21875,2.296875 l -0.07292,0.665365 h -6.826823 l -0.02734,0.21875 q -0.136719,0.993489 0.145833,1.904947 0.282553,0.902344 0.920573,1.440105 0.647136,0.528645 1.549479,0.546874 0.875,0.02734 1.576823,-0.337239 0.701823,-0.364583 1.294271,-0.97526 l 0.638021,0.519531 q -0.665365,0.856771 -1.585938,1.303385 -0.911458,0.4375 -2.005208,0.419271 z m 1.148438,-9.296875 q -1.184896,-0.04557 -2.123698,0.838542 -0.938802,0.884114 -1.412761,2.488281 l 5.723959,0.0091 0.02734,-0.136719 q 0.164063,-1.294271 -0.455729,-2.223958 -0.619791,-0.938802 -1.759114,-0.975261 z"
     style="font-style:italic;font-variant:normal;font-weight:300;font-stretch:normal;font-size:18.66666603px;font-family:Roboto;-inkscape-font-specification:'Roboto Light Italic';fill:#4285f4;fill-opacity:1"
     id="path843"
     inkscape:connector-curvature="0" /><path
     d="m 32.145872,86.432172 -0.328125,1.686198 q 0.65625,-0.911458 1.513021,-1.394531 0.865885,-0.492187 1.85026,-0.473958 1.421875,0.03646 2.069011,0.993489 0.647135,0.957032 0.455729,2.634115 l -1.075521,6.416666 h -1.075521 l 1.075521,-6.434895 q 0.05469,-0.519532 0.01823,-1.002604 -0.154948,-1.622396 -1.768229,-1.667969 -0.957031,-0.01823 -1.786458,0.574219 -0.829427,0.583333 -1.458333,1.768229 l -1.166667,6.76302 h -1.075521 l 1.713542,-9.861979 z"
     style="font-style:italic;font-variant:normal;font-weight:300;font-stretch:normal;font-size:18.66666603px;font-family:Roboto;-inkscape-font-specification:'Roboto Light Italic';fill:#4285f4;fill-opacity:1"
     id="path845"
     inkscape:connector-curvature="0" /><path
     d="m 43.238321,83.907433 -0.4375,2.524739 h 1.977865 l -0.154948,0.89323 h -1.977864 l -1.09375,6.580729 -0.01823,0.565104 q 0,0.993489 0.911459,1.020833 0.282552,0.0091 0.884114,-0.0638 l -0.04557,0.893229 q -0.53776,0.154948 -1.09375,0.136719 -0.957031,-0.01823 -1.394531,-0.665365 -0.4375,-0.65625 -0.31901,-1.895833 l 1.084635,-6.571614 h -1.768229 l 0.164063,-0.89323 h 1.749999 l 0.446615,-2.524739 z"
     style="font-style:italic;font-variant:normal;font-weight:300;font-stretch:normal;font-size:18.66666603px;font-family:Roboto;-inkscape-font-specification:'Roboto Light Italic';fill:#4285f4;fill-opacity:1"
     id="path847"
     inkscape:connector-curvature="0" /><path
     d="m 49.572957,90.898318 h -4.25651 l 0.164062,-0.920573 h 4.25651 z"
     style="font-style:italic;font-variant:normal;font-weight:300;font-stretch:normal;font-size:18.66666603px;font-family:Roboto;-inkscape-font-specification:'Roboto Light Italic';fill:#4285f4;fill-opacity:1"
     id="path849"
     inkscape:connector-curvature="0" /><path
     d="m 59.179726,91.408735 q -0.31901,2.351562 -1.503906,3.736979 -1.175781,1.385416 -2.916667,1.339844 -0.966145,-0.01823 -1.704427,-0.428386 -0.729166,-0.410156 -1.121093,-1.111979 l -0.309896,1.348958 h -1.020833 l 2.433593,-13.999999 h 1.075521 l -1.029948,5.56901 q 1.266927,-1.667969 3.199219,-1.613281 1.41276,0.03646 2.178385,1.048177 0.765625,1.011719 0.792969,2.798177 0.0091,0.583333 -0.05469,1.121094 z m -1.066406,-0.209636 0.0638,-0.865885 q 0.02734,-1.485677 -0.519531,-2.296875 -0.546875,-0.811198 -1.631511,-0.847656 -1.996093,-0.03646 -3.126301,2.023437 l -0.747396,4.466146 q 0.264323,0.884115 0.902343,1.367187 0.647136,0.473959 1.567709,0.501302 1.358073,0.02734 2.269531,-1.048177 0.920573,-1.084635 1.221354,-3.299479 z"
     style="font-style:italic;font-variant:normal;font-weight:300;font-stretch:normal;font-size:18.66666603px;font-family:Roboto;-inkscape-font-specification:'Roboto Light Italic';fill:#4285f4;fill-opacity:1"
     id="path851"
     inkscape:connector-curvature="0" /><path
     d="m 66.881547,96.294151 q -0.04557,-0.346354 -0.02734,-0.692708 l 0.08203,-0.683594 q -0.683594,0.738281 -1.567708,1.157552 -0.875,0.419271 -1.895833,0.401042 -1.248698,-0.01823 -2.032552,-0.783854 -0.77474,-0.77474 -0.692709,-1.941406 0.07292,-0.975261 0.665365,-1.686198 0.601562,-0.720052 1.704427,-1.111979 1.102864,-0.401042 2.470052,-0.401042 l 2.014323,0.0091 0.164062,-1.130209 q 0.109375,-1.011718 -0.4375,-1.622395 -0.546875,-0.610678 -1.613281,-0.647136 -1.075521,-0.01823 -1.877604,0.537761 -0.792969,0.546874 -0.99349,1.449218 H 61.77738 q 0.182292,-1.294271 1.330729,-2.105468 1.148438,-0.820313 2.716146,-0.802084 1.522135,0.03646 2.342448,0.920573 0.829427,0.884115 0.674479,2.296875 l -0.820312,4.958333 -0.07292,0.792969 q -0.02734,0.492187 0.07292,0.97526 l -0.01823,0.109375 z m -3.226563,-0.774739 q 1.002604,0.03646 1.914063,-0.473959 0.920573,-0.519531 1.522135,-1.467447 l 0.373698,-2.178386 -1.740885,-0.0091 q -1.658854,0 -2.707032,0.592448 -1.048177,0.583333 -1.157552,1.677083 -0.08203,0.802083 0.419271,1.321614 0.510417,0.519532 1.376302,0.537761 z"
     style="font-style:italic;font-variant:normal;font-weight:300;font-stretch:normal;font-size:18.66666603px;font-family:Roboto;-inkscape-font-specification:'Roboto Light Italic';fill:#4285f4;fill-opacity:1"
     id="path853"
     inkscape:connector-curvature="0" /><path
     d="m 76.789104,93.723839 q 0.145833,-1.257813 -1.53125,-1.822917 l -1.567708,-0.464843 q -2.160157,-0.729167 -2.041667,-2.433594 0.0638,-1.230469 1.130208,-1.996094 1.075521,-0.774739 2.552084,-0.75651 1.449218,0.01823 2.351562,0.820312 0.902344,0.792969 0.838542,2.123698 h -1.075521 q 0.05469,-0.884114 -0.55599,-1.440104 -0.601562,-0.55599 -1.604166,-0.574219 -1.039063,0 -1.75,0.492188 -0.710938,0.483073 -0.802084,1.285156 -0.136718,1.175781 1.440105,1.649739 l 1.139322,0.328125 0.610677,0.209636 q 2.059896,0.774739 1.941407,2.524739 -0.07292,1.184896 -1.029948,1.950521 -0.947917,0.756511 -2.451823,0.847656 l -0.373698,0.0091 q -0.99349,-0.01823 -1.795573,-0.382813 -0.802083,-0.373697 -1.230469,-1.039062 -0.428385,-0.665365 -0.373697,-1.53125 l 1.084635,0.0091 q 0,0.929687 0.628906,1.467448 0.628906,0.53776 1.731771,0.555989 1.09375,0 1.859375,-0.492187 0.765625,-0.501302 0.875,-1.339844 z"
     style="font-style:italic;font-variant:normal;font-weight:300;font-stretch:normal;font-size:18.66666603px;font-family:Roboto;-inkscape-font-specification:'Roboto Light Italic';fill:#4285f4;fill-opacity:1"
     id="path855"
     inkscape:connector-curvature="0" /><path
     d="m 83.725299,96.476443 q -1.184896,-0.01823 -2.050781,-0.65625 -0.865885,-0.647135 -1.276042,-1.75 -0.401041,-1.111979 -0.282552,-2.397135 l 0.02734,-0.309896 q 0.127604,-1.367188 0.811198,-2.597656 0.683594,-1.239584 1.731771,-1.886719 1.048177,-0.65625 2.242187,-0.628906 1.102865,0.01823 1.859375,0.601562 0.765625,0.583334 1.111979,1.622396 0.346354,1.039063 0.21875,2.296875 l -0.07292,0.665365 h -6.826823 l -0.02734,0.21875 q -0.136719,0.993489 0.145834,1.904947 0.282552,0.902344 0.920572,1.440105 0.647136,0.528645 1.54948,0.546874 0.875,0.02734 1.576822,-0.337239 0.701823,-0.364583 1.294271,-0.97526 l 0.638021,0.519531 q -0.665365,0.856771 -1.585937,1.303385 -0.911459,0.4375 -2.005209,0.419271 z m 1.148438,-9.296875 q -1.184896,-0.04557 -2.123698,0.838542 -0.938802,0.884114 -1.41276,2.488281 l 5.723958,0.0091 0.02734,-0.136719 q 0.164063,-1.294271 -0.455729,-2.223958 -0.619791,-0.938802 -1.759114,-0.975261 z"
     style="font-style:italic;font-variant:normal;font-weight:300;font-stretch:normal;font-size:18.66666603px;font-family:Roboto;-inkscape-font-specification:'Roboto Light Italic';fill:#4285f4;fill-opacity:1"
     id="path857"
     inkscape:connector-curvature="0" /><path
     d="m 89.695346,91.335818 q 0.209636,-1.549479 0.847657,-2.743489 0.63802,-1.203125 1.558593,-1.786459 0.929688,-0.583333 2.078125,-0.555989 0.875,0.01823 1.595052,0.410156 0.720052,0.382813 1.139323,1.166667 L 97.9167,82.294152 h 1.075521 l -2.433594,13.999999 h -1.011718 l 0.246093,-1.3125 q -1.285156,1.549479 -3.190104,1.494792 -1.376302,-0.03646 -2.160156,-1.066406 -0.774739,-1.039063 -0.811198,-2.789063 -0.01823,-0.565104 0.04557,-1.09375 z m 1.09375,0.182292 q -0.07292,0.610677 -0.05469,1.303385 0.03646,1.248698 0.574219,1.96875 0.546875,0.710938 1.549479,0.747396 1.011718,0.02734 1.777343,-0.464844 0.765625,-0.492187 1.294271,-1.3125 L 96.72269,89.11186 q -0.264323,-0.884115 -0.875,-1.385417 -0.601563,-0.510416 -1.540365,-0.53776 -1.385416,-0.04557 -2.315104,1.066406 -0.920573,1.102865 -1.184895,3.071615 z"
     style="font-style:italic;font-variant:normal;font-weight:300;font-stretch:normal;font-size:18.66666603px;font-family:Roboto;-inkscape-font-specification:'Roboto Light Italic';fill:#4285f4;fill-opacity:1"
     id="path859"
     inkscape:connector-curvature="0" /><path
     d="m 106.62113,86.432172 -0.3099,1.604167 q 1.33073,-1.822917 3.34505,-1.786458 1.03907,0.01823 1.72266,0.519531 0.69271,0.501302 0.85677,1.394531 0.67448,-0.920573 1.56771,-1.421875 0.90234,-0.510416 1.95963,-0.492187 1.40365,0.02734 2.07813,0.929687 0.68359,0.893229 0.5651,2.479167 l -0.0182,0.209635 -1.08463,6.425781 h -1.08464 l 1.07552,-6.44401 q 0.0547,-0.53776 0.009,-1.020833 -0.18229,-1.613281 -1.84115,-1.640625 -1.11198,-0.01823 -2.05078,0.729167 -0.92969,0.738281 -1.16666,1.85026 l -1.13021,6.526041 h -1.08464 l 1.09375,-6.526041 q 0.26432,-2.515625 -1.85026,-2.579427 -1.04818,-0.01823 -1.95052,0.65625 -0.90234,0.674479 -1.21224,1.677083 l -1.16667,6.772135 h -1.08463 l 1.71354,-9.861979 z"
     style="font-style:italic;font-variant:normal;font-weight:300;font-stretch:normal;font-size:18.66666603px;font-family:Roboto;-inkscape-font-specification:'Roboto Light Italic';fill:#4285f4;fill-opacity:1"
     id="path861"
     inkscape:connector-curvature="0" /><path
     d="m 120.32947,91.272016 q 0.16406,-1.430989 0.875,-2.615885 0.71093,-1.194011 1.76823,-1.813802 1.0664,-0.619792 2.30598,-0.592448 1.22136,0.01823 2.07813,0.674479 0.86588,0.647135 1.25781,1.777344 0.40104,1.121093 0.27344,2.488281 l -0.0182,0.173177 q -0.27344,2.333333 -1.65885,3.746094 -1.37631,1.41276 -3.3086,1.367187 -1.65885,-0.02734 -2.65234,-1.221354 -0.99349,-1.194011 -0.97526,-3.153646 l 0.0273,-0.519531 z m 1.05729,0.309896 q -0.11849,1.084635 0.15495,2.005208 0.28255,0.911458 0.89322,1.43099 0.61068,0.519531 1.52214,0.546875 0.98438,0.01823 1.79557,-0.501302 0.82032,-0.519532 1.34896,-1.467448 0.52865,-0.947917 0.68359,-2.096354 l 0.0273,-0.300782 q 0.16406,-1.759114 -0.54688,-2.871093 -0.70182,-1.121094 -2.04166,-1.148438 -1.45834,-0.04557 -2.52474,1.130209 -1.05729,1.166666 -1.29427,3.108072 z"
     style="font-style:italic;font-variant:normal;font-weight:300;font-stretch:normal;font-size:18.66666603px;font-family:Roboto;-inkscape-font-specification:'Roboto Light Italic';fill:#4285f4;fill-opacity:1"
     id="path863"
     inkscape:connector-curvature="0" /><path
     d="m 130.74743,91.335818 q 0.20964,-1.549479 0.84766,-2.743489 0.63802,-1.203125 1.55859,-1.786459 0.92969,-0.583333 2.07813,-0.555989 0.875,0.01823 1.59505,0.410156 0.72005,0.382813 1.13932,1.166667 l 1.00261,-5.532552 h 1.07552 l -2.4336,13.999999 h -1.01172 l 0.2461,-1.3125 q -1.28516,1.549479 -3.19011,1.494792 -1.3763,-0.03646 -2.16015,-1.066406 -0.77474,-1.039063 -0.8112,-2.789063 -0.0182,-0.565104 0.0456,-1.09375 z m 1.09375,0.182292 q -0.0729,0.610677 -0.0547,1.303385 0.0365,1.248698 0.57422,1.96875 0.54688,0.710938 1.54948,0.747396 1.01172,0.02734 1.77735,-0.464844 0.76562,-0.492187 1.29427,-1.3125 l 0.79297,-4.648437 q -0.26433,-0.884115 -0.875,-1.385417 -0.60157,-0.510416 -1.54037,-0.53776 -1.38542,-0.04557 -2.3151,1.066406 -0.92058,1.102865 -1.1849,3.071615 z"
     style="font-style:italic;font-variant:normal;font-weight:300;font-stretch:normal;font-size:18.66666603px;font-family:Roboto;-inkscape-font-specification:'Roboto Light Italic';fill:#4285f4;fill-opacity:1"
     id="path865"
     inkscape:connector-curvature="0" /><path
     d="m 144.39196,96.476443 q -1.18489,-0.01823 -2.05078,-0.65625 -0.86588,-0.647135 -1.27604,-1.75 -0.40104,-1.111979 -0.28255,-2.397135 l 0.0273,-0.309896 q 0.12761,-1.367188 0.8112,-2.597656 0.68359,-1.239584 1.73177,-1.886719 1.04818,-0.65625 2.24219,-0.628906 1.10286,0.01823 1.85937,0.601562 0.76563,0.583334 1.11198,1.622396 0.34636,1.039063 0.21875,2.296875 l -0.0729,0.665365 h -6.82683 l -0.0273,0.21875 q -0.13672,0.993489 0.14583,1.904947 0.28255,0.902344 0.92058,1.440105 0.64713,0.528645 1.54947,0.546874 0.875,0.02734 1.57683,-0.337239 0.70182,-0.364583 1.29427,-0.97526 l 0.63802,0.519531 q -0.66537,0.856771 -1.58594,1.303385 -0.91146,0.4375 -2.00521,0.419271 z m 1.14844,-9.296875 q -1.18489,-0.04557 -2.1237,0.838542 -0.9388,0.884114 -1.41276,2.488281 l 5.72396,0.0091 0.0273,-0.136719 q 0.16407,-1.294271 -0.45572,-2.223958 -0.6198,-0.938802 -1.75912,-0.975261 z"
     style="font-style:italic;font-variant:normal;font-weight:300;font-stretch:normal;font-size:18.66666603px;font-family:Roboto;-inkscape-font-specification:'Roboto Light Italic';fill:#4285f4;fill-opacity:1"
     id="path867"
     inkscape:connector-curvature="0" /><path
     d="M 151.13675,96.294151 H 150.043 l 2.43359,-13.999999 h 1.09375 z"
     style="font-style:italic;font-variant:normal;font-weight:300;font-stretch:normal;font-size:18.66666603px;font-family:Roboto;-inkscape-font-specification:'Roboto Light Italic';fill:#4285f4;fill-opacity:1"
     id="path869"
     inkscape:connector-curvature="0" /><path
     d="m 155.293,96.294151 h -1.09375 l 1.72266,-9.861979 h 1.08463 z m 0.92969,-12.714843 q 0.0456,-0.592448 0.78385,-0.747396 0.35547,0.0638 0.5013,0.227865 0.15495,0.154948 0.20052,0.519531 -0.0911,0.346354 -0.26432,0.510417 -0.17318,0.154948 -0.51953,0.227864 -0.73828,-0.109375 -0.70182,-0.738281 z"
     style="font-style:italic;font-variant:normal;font-weight:300;font-stretch:normal;font-size:18.66666603px;font-family:Roboto;-inkscape-font-specification:'Roboto Light Italic';fill:#4285f4;fill-opacity:1"
     id="path871"
     inkscape:connector-curvature="0" /><path
     d="m 160.98961,86.432172 -0.32812,1.686198 q 0.65625,-0.911458 1.51302,-1.394531 0.86589,-0.492187 1.85026,-0.473958 1.42188,0.03646 2.06901,0.993489 0.64714,0.957032 0.45573,2.634115 l -1.07552,6.416666 h -1.07552 l 1.07552,-6.434895 q 0.0547,-0.519532 0.0182,-1.002604 -0.15495,-1.622396 -1.76823,-1.667969 -0.95703,-0.01823 -1.78646,0.574219 -0.82943,0.583333 -1.45833,1.768229 l -1.16667,6.76302 h -1.07552 l 1.71354,-9.861979 z"
     style="font-style:italic;font-variant:normal;font-weight:300;font-stretch:normal;font-size:18.66666603px;font-family:Roboto;-inkscape-font-specification:'Roboto Light Italic';fill:#4285f4;fill-opacity:1"
     id="path873"
     inkscape:connector-curvature="0" /><path
     d="m 173.17582,86.240766 q 0.88411,0.02734 1.61328,0.419271 0.72917,0.391927 1.14844,1.19401 l 0.33724,-1.421875 h 1.01171 l -1.65885,9.688802 q -0.17318,1.239584 -0.78385,2.1875 -0.61068,0.947917 -1.56771,1.449219 -0.94792,0.510417 -2.11459,0.473957 -0.92968,-0.0182 -1.77734,-0.464843 -0.85677,-0.455729 -1.3763,-1.266927 l 0.67448,-0.63802 q 0.9388,1.41276 2.45182,1.449218 1.34896,0.03646 2.2513,-0.820312 0.91146,-0.847656 1.14844,-2.315104 l 0.23698,-1.148438 q -1.3125,1.503906 -3.16276,1.449219 -1.38542,-0.03646 -2.16016,-1.057292 -0.76562,-1.029948 -0.80208,-2.798177 -0.0547,-1.63151 0.54687,-3.226562 0.60157,-1.595052 1.63152,-2.388021 1.03906,-0.802083 2.35156,-0.765625 z m -3.39063,5.286458 -0.0547,0.847657 q -0.0274,1.494791 0.51953,2.315104 0.54687,0.811198 1.61328,0.847656 0.91146,0.03646 1.70442,-0.428385 0.79297,-0.464844 1.36719,-1.376303 l 0.77474,-4.602864 q -0.24609,-0.884115 -0.85677,-1.394531 -0.60156,-0.519531 -1.54948,-0.546875 -1.39453,-0.04557 -2.3151,1.075521 -0.91146,1.121093 -1.20313,3.26302 z"
     style="font-style:italic;font-variant:normal;font-weight:300;font-stretch:normal;font-size:18.66666603px;font-family:Roboto;-inkscape-font-specification:'Roboto Light Italic';fill:#4285f4;fill-opacity:1"
     id="path875"
     inkscape:connector-curvature="0" /><path
     d="m 177.82426,98.782432 -0.61068,-0.501302 q 1.04818,-1.203125 1.2487,-2.40625 l 0.21875,-1.29427 h 1.05729 l -0.20052,1.3125 q -0.30078,1.713541 -1.71354,2.889322 z"
     style="font-style:italic;font-variant:normal;font-weight:300;font-stretch:normal;font-size:18.66666603px;font-family:Roboto;-inkscape-font-specification:'Roboto Light Italic';fill:#4285f4;fill-opacity:1"
     id="path877"
     inkscape:connector-curvature="0" /><path
     d="m 190.27477,83.907433 -0.4375,2.524739 h 1.97787 l -0.15495,0.89323 h -1.97787 l -1.09375,6.580729 -0.0182,0.565104 q 0,0.993489 0.91146,1.020833 0.28255,0.0091 0.88412,-0.0638 l -0.0456,0.893229 q -0.53776,0.154948 -1.09375,0.136719 -0.95703,-0.01823 -1.39453,-0.665365 -0.4375,-0.65625 -0.31901,-1.895833 l 1.08464,-6.571614 h -1.76823 l 0.16406,-0.89323 h 1.75 l 0.44662,-2.524739 z"
     style="font-style:italic;font-variant:normal;font-weight:300;font-stretch:normal;font-size:18.66666603px;font-family:Roboto;-inkscape-font-specification:'Roboto Light Italic';fill:#4285f4;fill-opacity:1"
     id="path879"
     inkscape:connector-curvature="0" /><path
     d="m 194.7956,88.100141 q 1.42188,-1.886719 3.35417,-1.85026 1.42188,0.03646 2.06901,0.993489 0.64714,0.957032 0.45573,2.634115 l -1.07552,6.416666 h -1.07552 l 1.07552,-6.434895 q 0.0547,-0.519532 0.0182,-1.002604 -0.15495,-1.622396 -1.76823,-1.667969 -0.95703,-0.01823 -1.78646,0.574219 -0.82943,0.583333 -1.45833,1.768229 l -1.16667,6.76302 h -1.07552 l 2.43359,-13.999999 h 1.07553 z"
     style="font-style:italic;font-variant:normal;font-weight:300;font-stretch:normal;font-size:18.66666603px;font-family:Roboto;-inkscape-font-specification:'Roboto Light Italic';fill:#4285f4;fill-opacity:1"
     id="path881"
     inkscape:connector-curvature="0" /><path
     d="m 206.29821,96.476443 q -1.18489,-0.01823 -2.05078,-0.65625 -0.86588,-0.647135 -1.27604,-1.75 -0.40104,-1.111979 -0.28255,-2.397135 l 0.0273,-0.309896 q 0.12761,-1.367188 0.8112,-2.597656 0.68359,-1.239584 1.73177,-1.886719 1.04818,-0.65625 2.24219,-0.628906 1.10286,0.01823 1.85937,0.601562 0.76563,0.583334 1.11198,1.622396 0.34636,1.039063 0.21875,2.296875 l -0.0729,0.665365 h -6.82683 l -0.0273,0.21875 q -0.13672,0.993489 0.14583,1.904947 0.28255,0.902344 0.92058,1.440105 0.64713,0.528645 1.54947,0.546874 0.875,0.02734 1.57683,-0.337239 0.70182,-0.364583 1.29427,-0.97526 l 0.63802,0.519531 q -0.66537,0.856771 -1.58594,1.303385 -0.91146,0.4375 -2.00521,0.419271 z m 1.14844,-9.296875 q -1.18489,-0.04557 -2.1237,0.838542 -0.9388,0.884114 -1.41276,2.488281 l 5.72396,0.0091 0.0273,-0.136719 q 0.16407,-1.294271 -0.45572,-2.223958 -0.6198,-0.938802 -1.75912,-0.975261 z"
     style="font-style:italic;font-variant:normal;font-weight:300;font-stretch:normal;font-size:18.66666603px;font-family:Roboto;-inkscape-font-specification:'Roboto Light Italic';fill:#4285f4;fill-opacity:1"
     id="path883"
     inkscape:connector-curvature="0" /><path
     d="m 222.33987,87.352745 q -0.35546,-0.07292 -0.72005,-0.08203 -1.03906,0 -1.90494,0.638021 -0.86589,0.628906 -1.15756,1.604167 l -1.16666,6.781249 h -1.07552 l 1.71354,-9.861979 h 1.0664 l -0.32812,1.567709 q 0.53776,-0.875 1.29427,-1.330729 0.76562,-0.45573 1.67708,-0.4375 0.31901,0 0.7474,0.127604 z"
     style="font-style:italic;font-variant:normal;font-weight:300;font-stretch:normal;font-size:18.66666603px;font-family:Roboto;-inkscape-font-specification:'Roboto Light Italic';fill:#4285f4;fill-opacity:1"
     id="path885"
     inkscape:connector-curvature="0" /><path
     d="m 223.7253,96.294151 h -1.09375 l 1.72265,-9.861979 h 1.08464 z m 0.92968,-12.714843 q 0.0456,-0.592448 0.78386,-0.747396 0.35547,0.0638 0.5013,0.227865 0.15495,0.154948 0.20052,0.519531 -0.0911,0.346354 -0.26432,0.510417 -0.17318,0.154948 -0.51953,0.227864 -0.73828,-0.109375 -0.70183,-0.738281 z"
     style="font-style:italic;font-variant:normal;font-weight:300;font-stretch:normal;font-size:18.66666603px;font-family:Roboto;-inkscape-font-specification:'Roboto Light Italic';fill:#4285f4;fill-opacity:1"
     id="path887"
     inkscape:connector-curvature="0" /><path
     d="m 231.58207,86.240766 q 0.88411,0.02734 1.61328,0.419271 0.72917,0.391927 1.14844,1.19401 l 0.33724,-1.421875 h 1.01171 l -1.65885,9.688802 q -0.17318,1.239584 -0.78385,2.1875 -0.61068,0.947917 -1.56771,1.449219 -0.94792,0.510417 -2.11459,0.473957 -0.92968,-0.0182 -1.77734,-0.464843 -0.85677,-0.455729 -1.3763,-1.266927 l 0.67448,-0.63802 q 0.9388,1.41276 2.45182,1.449218 1.34896,0.03646 2.2513,-0.820312 0.91146,-0.847656 1.14844,-2.315104 l 0.23698,-1.148438 q -1.3125,1.503906 -3.16276,1.449219 -1.38542,-0.03646 -2.16016,-1.057292 -0.76562,-1.029948 -0.80208,-2.798177 -0.0547,-1.63151 0.54687,-3.226562 0.60157,-1.595052 1.63152,-2.388021 1.03906,-0.802083 2.35156,-0.765625 z m -3.39063,5.286458 -0.0547,0.847657 q -0.0274,1.494791 0.51953,2.315104 0.54687,0.811198 1.61328,0.847656 0.91146,0.03646 1.70442,-0.428385 0.79297,-0.464844 1.36719,-1.376303 l 0.77474,-4.602864 q -0.24609,-0.884115 -0.85677,-1.394531 -0.60156,-0.519531 -1.54948,-0.546875 -1.39453,-0.04557 -2.3151,1.075521 -0.91146,1.121093 -1.20313,3.26302 z"
     style="font-style:italic;font-variant:normal;font-weight:300;font-stretch:normal;font-size:18.66666603px;font-family:Roboto;-inkscape-font-specification:'Roboto Light Italic';fill:#4285f4;fill-opacity:1"
     id="path889"
     inkscape:connector-curvature="0" /><path
     d="m 239.23831,88.100141 q 1.42187,-1.886719 3.35416,-1.85026 1.42188,0.03646 2.06901,0.993489 0.64714,0.957032 0.45573,2.634115 l -1.07552,6.416666 h -1.07552 l 1.07552,-6.434895 q 0.0547,-0.519532 0.0182,-1.002604 -0.15495,-1.622396 -1.76823,-1.667969 -0.95703,-0.01823 -1.78646,0.574219 -0.82942,0.583333 -1.45833,1.768229 l -1.16667,6.76302 h -1.07552 l 2.4336,-13.999999 h 1.07552 z"
     style="font-style:italic;font-variant:normal;font-weight:300;font-stretch:normal;font-size:18.66666603px;font-family:Roboto;-inkscape-font-specification:'Roboto Light Italic';fill:#4285f4;fill-opacity:1"
     id="path891"
     inkscape:connector-curvature="0" /><path
     d="m 250.64977,83.907433 -0.4375,2.524739 h 1.97787 l -0.15495,0.89323 h -1.97787 l -1.09375,6.580729 -0.0182,0.565104 q 0,0.993489 0.91146,1.020833 0.28255,0.0091 0.88412,-0.0638 l -0.0456,0.893229 q -0.53776,0.154948 -1.09375,0.136719 -0.95703,-0.01823 -1.39453,-0.665365 -0.4375,-0.65625 -0.31901,-1.895833 l 1.08464,-6.571614 h -1.76823 l 0.16406,-0.89323 h 1.75 l 0.44662,-2.524739 z"
     style="font-style:italic;font-variant:normal;font-weight:300;font-stretch:normal;font-size:18.66666603px;font-family:Roboto;-inkscape-font-specification:'Roboto Light Italic';fill:#4285f4;fill-opacity:1"
     id="path893"
     inkscape:connector-curvature="0" /><path
     d="m 259.9193,94.02462 v 0.77474 l 0.35547,-0.847657 3.60026,-7.519531 h 0.92969 l 0.97526,7.537761 0.0547,0.929687 0.37369,-0.938802 3.26303,-7.528646 h 1.15755 l -4.50261,9.861979 h -0.92968 l -1.08464,-7.820312 -0.009,-0.546875 -0.20964,0.55599 -3.77344,7.811197 h -0.92968 l -1.04818,-9.861979 1.02083,-0.0091 z"
     style="font-style:italic;font-variant:normal;font-weight:300;font-stretch:normal;font-size:18.66666603px;font-family:Roboto;-inkscape-font-specification:'Roboto Light Italic';fill:#4285f4;fill-opacity:1"
     id="path895"
     inkscape:connector-curvature="0" /><path
     d="m 277.10028,96.294151 q -0.0456,-0.346354 -0.0273,-0.692708 l 0.082,-0.683594 q -0.68359,0.738281 -1.56771,1.157552 -0.875,0.419271 -1.89583,0.401042 -1.2487,-0.01823 -2.03255,-0.783854 -0.77474,-0.77474 -0.69271,-1.941406 0.0729,-0.975261 0.66536,-1.686198 0.60156,-0.720052 1.70443,-1.111979 1.10286,-0.401042 2.47005,-0.401042 l 2.01432,0.0091 0.16407,-1.130209 q 0.10937,-1.011718 -0.4375,-1.622395 -0.54688,-0.610678 -1.61329,-0.647136 -1.07552,-0.01823 -1.8776,0.537761 -0.79297,0.546874 -0.99349,1.449218 h -1.06641 q 0.1823,-1.294271 1.33073,-2.105468 1.14844,-0.820313 2.71615,-0.802084 1.52214,0.03646 2.34245,0.920573 0.82942,0.884115 0.67448,2.296875 l -0.82032,4.958333 -0.0729,0.792969 q -0.0274,0.492187 0.0729,0.97526 l -0.0182,0.109375 z m -3.22656,-0.774739 q 1.0026,0.03646 1.91406,-0.473959 0.92057,-0.519531 1.52214,-1.467447 l 0.37369,-2.178386 -1.74088,-0.0091 q -1.65885,0 -2.70703,0.592448 -1.04818,0.583333 -1.15755,1.677083 -0.082,0.802083 0.41927,1.321614 0.51041,0.519532 1.3763,0.537761 z"
     style="font-style:italic;font-variant:normal;font-weight:300;font-stretch:normal;font-size:18.66666603px;font-family:Roboto;-inkscape-font-specification:'Roboto Light Italic';fill:#4285f4;fill-opacity:1"
     id="path897"
     inkscape:connector-curvature="0" /><path
     d="m 283.92711,94.689985 4.22006,-8.257813 h 1.21224 l -6.01563,11.447917 q -0.66536,1.330729 -1.41276,1.886718 -0.73828,0.555993 -1.64974,0.537763 -0.34635,-0.0182 -0.875,-0.14584 l 0.10938,-0.893225 0.54687,0.0638 q 1.53125,0.0638 2.41537,-1.804687 l 0.6927,-1.376302 -1.90494,-9.716146 h 1.13932 z"
     style="font-style:italic;font-variant:normal;font-weight:300;font-stretch:normal;font-size:18.66666603px;font-family:Roboto;-inkscape-font-specification:'Roboto Light Italic';fill:#4285f4;fill-opacity:1"
     id="path899"
     inkscape:connector-curvature="0" /><path
     d="m 291.13674,92.602745 h -1.0026 l 1.60416,-9.579427 h 1.13021 z m -1.70443,3.053385 q 0.0182,-0.309895 0.25521,-0.528645 0.23698,-0.21875 0.51953,-0.21875 0.31901,-0.0091 0.51953,0.209635 0.20964,0.21875 0.1823,0.53776 -0.0182,0.300782 -0.2461,0.510417 -0.22786,0.200521 -0.53776,0.209636 -0.30989,0.0091 -0.51042,-0.191407 -0.20052,-0.209635 -0.18229,-0.528646 z"
     style="font-style:italic;font-variant:normal;font-weight:300;font-stretch:normal;font-size:18.66666603px;font-family:Roboto;-inkscape-font-specification:'Roboto Light Italic';fill:#4285f4;fill-opacity:1"
     id="path901"
     inkscape:connector-curvature="0" /></g>
</svg>