<?xml version="1.0" encoding="UTF-8" standalone="no"?>
<!-- Generator: Adobe Illustrator 19.0.0, SVG Export Plug-In . SVG Version: 6.00 Build 0)  -->

<svg
   xmlns:dc="http://purl.org/dc/elements/1.1/"
   xmlns:cc="http://creativecommons.org/ns#"
   xmlns:rdf="http://www.w3.org/1999/02/22-rdf-syntax-ns#"
   xmlns:svg="http://www.w3.org/2000/svg"
   xmlns="http://www.w3.org/2000/svg"
   xmlns:sodipodi="http://sodipodi.sourceforge.net/DTD/sodipodi-0.dtd"
   xmlns:inkscape="http://www.inkscape.org/namespaces/inkscape"
   version="1.1"
   id="Layer_1"
   x="0px"
   y="0px"
   viewBox="0 0 292.86851 100.30516"
   xml:space="preserve"
   sodipodi:docname="evoplex-tagline.svg"
   width="292.8685"
   height="100.30515"
   inkscape:version="0.92.3 (2405546, 2018-03-11)"
   inkscape:export-filename="/home/cardinot/dev/evoplex/evoplex.github.io/website/static/logos/evoplex-tagline.png"
   inkscape:export-xdpi="299.92984"
   inkscape:export-ydpi="299.92984"><metadata
   id="metadata61"><rdf:RDF><cc:Work
       rdf:about=""><dc:format>image/svg+xml</dc:format><dc:type
         rdf:resource="http://purl.org/dc/dcmitype/StillImage" /><dc:title></dc:title></cc:Work></rdf:RDF></metadata><defs
   id="defs59" /><sodipodi:namedview
   pagecolor="#ffffff"
   bordercolor="#666666"
   borderopacity="1"
   objecttolerance="10"
   gridtolerance="10"
   guidetolerance="10"
   inkscape:pageopacity="0"
   inkscape:pageshadow="2"
   inkscape:window-width="821"
   inkscape:window-height="474"
   id="namedview57"
   showgrid="false"
   inkscape:zoom="1.8968012"
   inkscape:cx="145.07728"
   inkscape:cy="24.366711"
   inkscape:window-x="438"
   inkscape:window-y="183"
   inkscape:window-maximized="0"
   inkscape:current-layer="Layer_1" />

<g
   id="g837"
   transform="translate(-2.4122429,-11.772125)"><text
     id="text5109"
     y="59.045082"
     x="101.36749"
     style="font-style:normal;font-variant:normal;font-weight:500;font-stretch:normal;font-size:48px;line-height:25px;font-family:Roboto;-inkscape-font-specification:'Roboto Medium';letter-spacing:0px;word-spacing:0px;fill:#4285f4;fill-opacity:1;stroke:none;stroke-width:1.39999998;stroke-linecap:butt;stroke-linejoin:round;stroke-miterlimit:4;stroke-dasharray:none;stroke-opacity:1"
     xml:space="preserve"><tspan
       style="font-style:normal;font-variant:normal;font-weight:900;font-stretch:normal;font-size:48px;font-family:Roboto;-inkscape-font-specification:'Roboto Heavy';fill:#4285f4;fill-opacity:1;stroke:none;stroke-width:1.39999998;stroke-linejoin:round;stroke-miterlimit:4;stroke-dasharray:none;stroke-opacity:1"
       y="59.045082"
       x="101.36749"
       id="tspan5107"
       sodipodi:role="line">Evoplex</tspan></text>
<g
     style="display:inline"
     id="g5195"
     transform="matrix(0.69071992,0,0,0.69071992,23.434877,11.772126)"><path
       d="m 66.481458,43.431204 -4.575987,-2.477142 -18.722933,0.13167 -0.0915,-20.05061 -2.094548,-4.541946 0.198373,39.655086 -21.688595,19.255664 3.19301,3.070311 19.207425,-19.261733 41.912322,-0.412083 -4.51947,-2.364463 -36.046634,0.269355 -0.05823,-13.119611 z"
       id="polygon2"
       inkscape:connector-curvature="0"
       sodipodi:nodetypes="cccccccccccccc"
       style="display:inline;fill:#a1c2fa;fill-opacity:1;stroke-width:0.88575321" /><circle
       style="display:inline;fill:none;fill-opacity:1;stroke:#4285f4;stroke-width:4.94382095;stroke-miterlimit:4;stroke-dasharray:none;stroke-opacity:1"
       id="path4552"
       cx="49.43821"
       cy="49.43821"
       r="46.966301"
       inkscape:export-xdpi="497.10538"
       inkscape:export-ydpi="497.10538" /><g
       inkscape:groupmode="layer"
       style="display:inline"
       transform="translate(15.745442,0.73679789)"
       inkscape:label="Layer 1"
       id="layer1"><path
         inkscape:connector-curvature="0"
         id="path3674"
         d="m 26.231422,10.019627 a 5.4822038,5.4822038 0 0 0 -5.454983,5.509834 5.4822038,5.4822038 0 0 0 5.509833,5.454984 5.4822038,5.4822038 0 0 0 5.454985,-5.509835 5.4822038,5.4822038 0 0 0 -5.509835,-5.454983 z"
         style="fill:#a1c2fa;fill-opacity:1;fill-rule:evenodd;stroke:none;stroke-width:1.03504002px;stroke-linecap:butt;stroke-linejoin:miter;stroke-opacity:1" /><path
         inkscape:connector-curvature="0"
         id="path3674-3"
         d="m 50.520422,35.904034 a 5.4822033,5.4822033 0 0 0 -5.454983,5.509835 5.4822033,5.4822033 0 0 0 5.509834,5.454984 5.4822033,5.4822033 0 0 0 5.454984,-5.509835 5.4822033,5.4822033 0 0 0 -5.509835,-5.454984 z"
         style="fill:#4285f4;fill-opacity:1;fill-rule:evenodd;stroke:none;stroke-width:1.0350399px;stroke-linecap:butt;stroke-linejoin:miter;stroke-opacity:1" /><path
         inkscape:connector-curvature="0"
         id="path3674-3-6"
         d="m 67.743421,51.258039 a 5.4822024,5.4822024 0 0 0 -5.454982,5.509832 5.4822024,5.4822024 0 0 0 5.509833,5.454983 5.4822024,5.4822024 0 0 0 5.454985,-5.509833 5.4822024,5.4822024 0 0 0 -5.509836,-5.454982 z"
         style="fill:#a1c2fa;fill-opacity:1;fill-rule:evenodd;stroke:none;stroke-width:1.03503978px;stroke-linecap:butt;stroke-linejoin:miter;stroke-opacity:1" /><path
         inkscape:connector-curvature="0"
         id="path3674-3-6-7"
         d="M 9.8315668,65.535429 A 6.8527526,6.8527526 0 0 0 3.0128375,72.422731 6.8527526,6.8527526 0 0 0 9.9001257,79.241466 6.8527526,6.8527526 0 0 0 16.71886,72.354164 6.8527526,6.8527526 0 0 0 9.8315668,65.535429 Z"
         style="fill:#a1c2fa;fill-opacity:1;fill-rule:evenodd;stroke:none;stroke-width:1.29379928px;stroke-linecap:butt;stroke-linejoin:miter;stroke-opacity:1" /></g></g></g><text
   xml:space="preserve"
   style="font-style:normal;font-variant:normal;font-weight:normal;font-stretch:normal;font-size:29.33333397px;line-height:28px;font-family:Lato;-inkscape-font-specification:Lato;letter-spacing:0px;word-spacing:0px;fill:#4285f4;fill-opacity:1;stroke:none;stroke-width:1px;stroke-linecap:butt;stroke-linejoin:miter;stroke-opacity:1"
   x="-0.41141677"
   y="96.294151"
   id="text823"><tspan
     sodipodi:role="line"
     id="tspan821"
     x="-0.41141677"
     y="96.294151"
     style="font-style:italic;font-variant:normal;font-weight:300;font-stretch:normal;font-size:18.66666603px;font-family:Roboto;-inkscape-font-specification:'Roboto Light Italic';fill:#4285f4;fill-opacity:1">agent-based modeling, the right way!</tspan></text>
</svg>