<svg xmlns="http://www.w3.org/2000/svg" viewBox="0 0 292.869 100.305" width="292.868" height="100.305"><g style="line-height:25px;-inkscape-font-specification:'Roboto Medium'"><path d="M122.697 32.812H109.76v8.133h15.281v6.328h-23.508V13.148h23.555V19.5H109.76v7.195h12.937zm14.93 5.063l4.008-15.961h8.32l-8.273 25.359h-8.063l-8.273-25.36h8.344zm13.359-3.516q0-3.797 1.477-6.75 1.477-2.977 4.242-4.57 2.766-1.594 6.492-1.594 5.696 0 8.977 3.539 3.281 3.516 3.281 9.586v.281q0 5.93-3.304 9.422-3.282 3.469-8.907 3.469-5.414 0-8.695-3.235-3.281-3.257-3.54-8.812zm7.899.492q0 3.516 1.101 5.156 1.102 1.641 3.258 1.641 4.22 0 4.313-6.492v-.797q0-6.82-4.36-6.82-3.96 0-4.289 5.882zm43.641-.071q0 5.907-2.672 9.446-2.649 3.516-7.172 3.516-3.492 0-5.742-2.555v11.836h-7.899v-35.11h7.383l.234 2.344q2.274-2.812 5.977-2.812 4.687 0 7.289 3.469 2.602 3.445 2.602 9.492zm-7.899-.491q0-6.75-3.937-6.75-2.813 0-3.75 2.015v9.985q1.03 2.109 3.796 2.109 3.774 0 3.891-6.516zm19.688 12.984h-7.922v-36h7.922zm17.155.469q-5.835 0-9.444-3.469-3.61-3.492-3.61-9.07v-.657q0-3.89 1.43-6.867 1.453-2.976 4.219-4.594 2.765-1.64 6.562-1.64 5.344 0 8.438 3.328 3.093 3.305 3.093 9.234v3.07h-15.703q.422 2.133 1.852 3.352 1.43 1.219 3.703 1.219 3.75 0 5.86-2.625l3.609 4.266q-1.477 2.039-4.196 3.257-2.695 1.196-5.812 1.196zm-.89-20.203q-3.469 0-4.125 4.593h7.969v-.609q.047-1.898-.96-2.93-1.009-1.054-2.884-1.054zm25.055 1.359l3.68-6.984h8.203l-6.68 12.351 7.008 13.008h-8.25l-3.985-7.5-3.914 7.5h-8.296l7.03-13.008-6.655-12.351h8.296z" style="-inkscape-font-specification:'Roboto Heavy'" aria-label="Evoplex" font-weight="900" font-size="48" font-family="Roboto" letter-spacing="0" word-spacing="0" fill="#4285f4"/></g><g transform="translate(21.023) scale(.69072)"><path d="M66.481 43.431l-4.576-2.477-18.722.132-.092-20.05-2.095-4.543.199 39.655-21.689 19.256 3.193 3.07 19.208-19.261 41.912-.413-4.52-2.364-36.046.27-.058-13.12z" fill="#a1c2fa"/><circle cx="49.438" cy="49.438" r="46.966" fill="none" stroke="#4285f4" stroke-width="4.944"/><g fill-rule="evenodd"><path d="M41.977 10.756a5.482 5.482 0 0 0-5.455 5.51 5.482 5.482 0 0 0 5.51 5.455 5.482 5.482 0 0 0 5.455-5.51 5.482 5.482 0 0 0-5.51-5.455z" fill="#a1c2fa"/><path d="M66.266 36.64a5.482 5.482 0 0 0-5.455 5.51 5.482 5.482 0 0 0 5.51 5.456 5.482 5.482 0 0 0 5.455-5.51 5.482 5.482 0 0 0-5.51-5.455z" fill="#4285f4"/><path d="M83.489 51.995a5.482 5.482 0 0 0-5.455 5.51 5.482 5.482 0 0 0 5.51 5.455 5.482 5.482 0 0 0 5.455-5.51 5.482 5.482 0 0 0-5.51-5.455zM25.577 66.272a6.853 6.853 0 0 0-6.819 6.888 6.853 6.853 0 0 0 6.888 6.818 6.853 6.853 0 0 0 6.818-6.887 6.853 6.853 0 0 0-6.887-6.819z" fill="#a1c2fa"/></g></g><g style="line-height:28px;-inkscape-font-specification:Lato"><path d="M6.142 96.294q-.046-.346-.027-.693l.082-.683q-.684.738-1.568 1.157-.875.42-1.896.401-1.249-.018-2.032-.783-.775-.775-.693-1.942.073-.975.665-1.686.602-.72 1.705-1.112 1.103-.401 2.47-.401l2.014.01.164-1.131q.11-1.012-.437-1.623-.547-.61-1.614-.647-1.075-.018-1.877.538-.793.547-.994 1.45H1.038q.182-1.295 1.33-2.106 1.149-.82 2.717-.802 1.522.036 2.342.92.83.884.675 2.297l-.82 4.959-.074.793q-.027.492.073.975l-.018.11zm-3.227-.775q1.003.037 1.914-.474.921-.52 1.523-1.467l.373-2.178-1.74-.01q-1.66 0-2.708.593-1.048.583-1.157 1.677-.082.802.42 1.322.51.52 1.375.537zm11.813-9.279q.884.028 1.613.42.73.392 1.149 1.194l.337-1.422h1.012l-1.66 9.689q-.172 1.24-.783 2.187-.61.948-1.568 1.45-.948.51-2.114.474-.93-.019-1.778-.465-.857-.456-1.376-1.267l.674-.638q.94 1.413 2.452 1.45 1.35.036 2.252-.821.911-.848 1.148-2.315l.237-1.149q-1.313 1.504-3.163 1.45-1.385-.037-2.16-1.058-.766-1.03-.802-2.798-.055-1.632.547-3.227.601-1.595 1.631-2.388 1.04-.802 2.352-.765zm-3.39 5.287l-.055.848q-.028 1.495.52 2.315.546.811 1.612.848.912.036 1.705-.429.793-.465 1.367-1.376l.775-4.603q-.246-.884-.857-1.394-.602-.52-1.55-.547-1.394-.046-2.315 1.075-.911 1.121-1.203 3.263zm12.522 4.949q-1.184-.018-2.05-.656-.866-.647-1.276-1.75-.401-1.112-.283-2.397l.028-.31q.127-1.367.81-2.597.684-1.24 1.733-1.887 1.048-.656 2.242-.63 1.103.02 1.86.602.765.584 1.111 1.623.347 1.039.219 2.297l-.073.665h-6.827l-.027.219q-.137.993.146 1.905.282.902.92 1.44.647.529 1.55.547.875.027 1.577-.337.701-.365 1.294-.976l.638.52q-.666.857-1.586 1.303-.912.438-2.005.42zm1.15-9.296q-1.186-.046-2.125.838-.938.884-1.412 2.488l5.724.01.027-.137q.164-1.294-.456-2.224-.62-.939-1.759-.975zm7.136-.748l-.328 1.686q.656-.911 1.513-1.394.866-.492 1.85-.474 1.422.036 2.069.993t.456 2.634l-1.076 6.417h-1.075l1.075-6.435q.055-.52.018-1.002-.154-1.623-1.768-1.668-.957-.019-1.786.574-.83.583-1.459 1.768l-1.166 6.763h-1.076l1.714-9.862zm11.092-2.525l-.437 2.525h1.978l-.155.893h-1.978l-1.094 6.581-.018.565q0 .994.911 1.021.283.01.884-.064l-.045.893q-.538.155-1.094.137-.957-.018-1.394-.665-.438-.656-.32-1.896l1.085-6.572h-1.768l.164-.893h1.75l.447-2.525zm6.335 6.991h-4.257l.165-.92h4.256zm9.607.511q-.32 2.351-1.504 3.737-1.176 1.385-2.917 1.34-.966-.019-1.704-.429-.73-.41-1.121-1.112l-.31 1.35h-1.021l2.433-14h1.076l-1.03 5.568q1.267-1.668 3.2-1.613 1.412.036 2.178 1.048.765 1.012.793 2.798.009.584-.055 1.121zm-1.067-.21l.064-.866q.027-1.485-.52-2.297-.546-.81-1.63-.847-1.997-.037-3.127 2.023l-.748 4.466q.265.884.903 1.367.647.474 1.567.502 1.359.027 2.27-1.048.92-1.085 1.221-3.3zm8.769 5.095q-.046-.346-.028-.693l.082-.683q-.683.738-1.567 1.157-.875.42-1.896.401-1.249-.018-2.033-.783-.775-.775-.693-1.942.073-.975.666-1.686.601-.72 1.704-1.112 1.103-.401 2.47-.401l2.015.01.164-1.131q.109-1.012-.438-1.623-.547-.61-1.613-.647-1.076-.018-1.878.538-.793.547-.993 1.45h-1.067q.183-1.295 1.331-2.106 1.149-.82 2.716-.802 1.522.036 2.343.92.83.884.674 2.297l-.82 4.959-.073.793q-.027.492.073.975l-.018.11zm-3.227-.775q1.003.037 1.914-.474.92-.52 1.522-1.467l.374-2.178-1.741-.01q-1.659 0-2.707.593-1.048.583-1.158 1.677-.082.802.42 1.322.51.52 1.376.537zm13.135-1.795q.145-1.258-1.532-1.823l-1.568-.465q-2.16-.73-2.042-2.434.064-1.23 1.13-1.996 1.076-.774 2.553-.756 1.449.018 2.351.82.903.793.839 2.124h-1.076q.055-.884-.556-1.44-.601-.556-1.604-.574-1.039 0-1.75.492-.71.483-.802 1.285-.137 1.176 1.44 1.65l1.14.328.61.21q2.06.774 1.942 2.524-.073 1.185-1.03 1.95-.948.757-2.452.848l-.374.01q-.993-.019-1.795-.383-.803-.374-1.23-1.04-.43-.665-.375-1.53l1.085.008q0 .93.629 1.468.629.538 1.732.556 1.093 0 1.86-.492.765-.502.874-1.34zm6.935 2.752q-1.185-.018-2.05-.656-.866-.647-1.277-1.75-.4-1.112-.282-2.397l.027-.31q.128-1.367.811-2.597.684-1.24 1.732-1.887 1.048-.656 2.242-.63 1.103.02 1.86.602.765.584 1.112 1.623.346 1.039.219 2.297l-.073.665h-6.827l-.028.219q-.136.993.146 1.905.283.902.92 1.44.648.529 1.55.547.875.027 1.577-.337.702-.365 1.294-.976l.638.52q-.665.857-1.585 1.303-.912.438-2.006.42zm1.149-9.296q-1.185-.046-2.124.838-.939.884-1.413 2.488l5.724.01.028-.137q.164-1.294-.456-2.224-.62-.939-1.76-.975zm4.821 4.156q.21-1.55.848-2.744.638-1.203 1.559-1.786.93-.583 2.078-.556.875.018 1.595.41.72.383 1.14 1.167l1.002-5.533h1.075l-2.433 14h-1.012l.246-1.312q-1.285 1.55-3.19 1.494-1.376-.036-2.16-1.066-.775-1.039-.811-2.789-.019-.565.045-1.094zm1.094.182q-.073.61-.055 1.303.037 1.25.575 1.97.547.71 1.55.747 1.01.027 1.776-.465.766-.492 1.295-1.313l.793-4.648q-.265-.884-.875-1.386-.602-.51-1.54-.537-1.386-.046-2.316 1.066-.92 1.103-1.185 3.072zm15.832-5.086l-.31 1.604q1.331-1.823 3.345-1.786 1.04.018 1.723.52.693.5.857 1.394.674-.92 1.567-1.422.903-.51 1.96-.492 1.404.027 2.078.93.684.893.565 2.479l-.018.21-1.085 6.425h-1.084l1.075-6.444q.055-.538.01-1.02-.183-1.614-1.842-1.641-1.112-.019-2.05.729-.93.738-1.167 1.85l-1.13 6.526h-1.085l1.094-6.526q.264-2.516-1.85-2.58-1.049-.018-1.951.657-.902.674-1.212 1.677l-1.167 6.772h-1.085l1.714-9.862zm13.709 4.84q.164-1.431.874-2.616.711-1.194 1.769-1.814 1.066-.62 2.306-.592 1.221.018 2.078.674.866.647 1.258 1.778.4 1.12.273 2.488l-.018.173q-.274 2.333-1.659 3.746-1.376 1.413-3.309 1.367-1.658-.027-2.652-1.22-.993-1.195-.975-3.155l.027-.52zm1.057.31q-.119 1.085.155 2.005.282.912.893 1.431.61.52 1.522.547.984.018 1.796-.501.82-.52 1.349-1.468.528-.948.683-2.096l.027-.3q.165-1.76-.546-2.872-.702-1.121-2.042-1.148-1.458-.046-2.525 1.13-1.057 1.166-1.294 3.108zm9.36-.246q.21-1.55.848-2.744.638-1.203 1.559-1.786.93-.583 2.078-.556.875.018 1.595.41.72.383 1.14 1.167l1.002-5.533h1.075l-2.433 14h-1.012l.246-1.312q-1.285 1.55-3.19 1.494-1.376-.036-2.16-1.066-.775-1.039-.811-2.789-.019-.565.045-1.094zm1.094.182q-.073.61-.055 1.303.037 1.25.575 1.97.547.71 1.55.747 1.01.027 1.777-.465.765-.492 1.294-1.313l.793-4.648q-.265-.884-.875-1.386-.602-.51-1.54-.537-1.386-.046-2.316 1.066-.92 1.103-1.185 3.072zm12.551 4.958q-1.185-.018-2.05-.656-.867-.647-1.277-1.75-.4-1.112-.282-2.397l.027-.31q.128-1.367.811-2.597.684-1.24 1.732-1.887 1.048-.656 2.242-.63 1.103.02 1.86.602.765.584 1.111 1.623.347 1.039.22 2.297l-.074.665h-6.827l-.027.219q-.137.993.146 1.905.283.902.92 1.44.648.529 1.55.547.875.027 1.577-.337.702-.365 1.294-.976l.638.52q-.665.857-1.586 1.303-.911.438-2.005.42zm1.148-9.296q-1.184-.046-2.123.838-.94.884-1.413 2.488l5.724.01.027-.137q.164-1.294-.456-2.224-.62-.939-1.759-.975zm5.597 9.114h-1.094l2.434-14h1.093zm4.156 0h-1.094l1.723-9.862h1.085zm.93-12.715q.045-.592.784-.747.355.064.5.228.156.155.201.52-.09.346-.264.51-.173.155-.52.228-.738-.11-.701-.739zm4.767 2.853l-.329 1.686q.657-.911 1.514-1.394.865-.492 1.85-.474 1.422.036 2.069.993t.456 2.634l-1.076 6.417h-1.076l1.076-6.435q.055-.52.018-1.002-.155-1.623-1.768-1.668-.957-.019-1.787.574-.829.583-1.458 1.768l-1.167 6.763h-1.075l1.714-9.862zm12.186-.192q.884.028 1.613.42.73.392 1.149 1.194l.337-1.422h1.011l-1.658 9.689q-.174 1.24-.784 2.187-.61.948-1.568 1.45-.948.51-2.115.474-.93-.019-1.777-.465-.857-.456-1.376-1.267l.674-.638q.94 1.413 2.452 1.45 1.35.036 2.251-.821.912-.848 1.149-2.315l.237-1.149q-1.313 1.504-3.163 1.45-1.385-.037-2.16-1.058-.766-1.03-.802-2.798-.055-1.632.547-3.227.601-1.595 1.631-2.388 1.04-.802 2.352-.765zm-3.39 5.287l-.056.848q-.027 1.495.52 2.315.547.811 1.613.848.912.036 1.705-.429.793-.465 1.367-1.376l.775-4.603q-.246-.884-.857-1.394-.602-.52-1.55-.547-1.394-.046-2.315 1.075-.911 1.121-1.203 3.263zm8.038 7.255l-.61-.5q1.048-1.204 1.248-2.407l.219-1.294h1.057l-.2 1.312q-.301 1.714-1.714 2.89zm12.451-14.875l-.438 2.525h1.978l-.155.893h-1.978l-1.093 6.581-.019.565q0 .994.912 1.021.282.01.884-.064l-.046.893q-.537.155-1.093.137-.957-.018-1.395-.665-.437-.656-.319-1.896l1.085-6.572h-1.769l.165-.893h1.75l.446-2.525zm4.521 4.193q1.421-1.887 3.354-1.85 1.422.036 2.069.993t.456 2.634l-1.076 6.417h-1.076l1.076-6.435q.055-.52.018-1.002-.155-1.623-1.768-1.668-.957-.019-1.786.574-.83.583-1.459 1.768l-1.167 6.763h-1.075l2.434-14h1.075zm11.502 8.376q-1.185-.018-2.05-.656-.866-.647-1.277-1.75-.4-1.112-.282-2.397l.027-.31q.128-1.367.811-2.597.684-1.24 1.732-1.887 1.048-.656 2.242-.63 1.103.02 1.86.602.765.584 1.112 1.623.346 1.039.218 2.297l-.072.665h-6.827l-.028.219q-.136.993.146 1.905.283.902.92 1.44.648.529 1.55.547.875.027 1.577-.337.702-.365 1.294-.976l.638.52q-.665.857-1.586 1.303-.911.438-2.005.42zm1.149-9.296q-1.185-.046-2.124.838-.939.884-1.413 2.488l5.724.01.027-.137q.165-1.294-.455-2.224-.62-.939-1.76-.975zm14.893.173q-.356-.073-.72-.082-1.04 0-1.905.638-.866.629-1.158 1.604l-1.166 6.781h-1.076l1.714-9.862h1.066L218.767 88q.538-.875 1.294-1.33.766-.457 1.677-.438.32 0 .748.127zm1.385 8.941h-1.093l1.722-9.862h1.085zm.93-12.715q.046-.592.784-.747.355.064.501.228.155.155.2.52-.09.346-.264.51-.173.155-.52.228-.737-.11-.701-.739zm6.927 2.661q.884.028 1.613.42.73.392 1.149 1.194l.337-1.422h1.012l-1.66 9.689q-.172 1.24-.783 2.187-.61.948-1.568 1.45-.948.51-2.114.474-.93-.019-1.778-.465-.856-.456-1.376-1.267l.675-.638q.938 1.413 2.451 1.45 1.35.036 2.252-.821.911-.848 1.148-2.315l.237-1.149q-1.312 1.504-3.163 1.45-1.385-.037-2.16-1.058-.765-1.03-.802-2.798-.055-1.632.547-3.227.602-1.595 1.632-2.388 1.039-.802 2.351-.765zm-3.39 5.287l-.055.848q-.028 1.495.52 2.315.546.811 1.613.848.911.036 1.704-.429.793-.465 1.367-1.376l.775-4.603q-.246-.884-.857-1.394-.601-.52-1.55-.547-1.394-.046-2.314 1.075-.912 1.121-1.204 3.263zm11.046-3.427q1.422-1.887 3.354-1.85 1.422.036 2.07.993.647.957.455 2.634l-1.075 6.417h-1.076l1.076-6.435q.054-.52.018-1.002-.155-1.623-1.768-1.668-.957-.019-1.787.574-.83.583-1.458 1.768l-1.167 6.763h-1.075l2.433-14h1.076zm11.412-4.193l-.438 2.525h1.978l-.155.893h-1.978l-1.093 6.581-.019.565q0 .994.912 1.021.282.01.884-.064l-.046.893q-.537.155-1.093.137-.957-.018-1.395-.665-.437-.656-.319-1.896l1.085-6.572h-1.769l.165-.893h1.75l.446-2.525zm9.27 10.118v.774l.355-.847 3.6-7.52h.93l.975 7.538.055.93.373-.94 3.263-7.528h1.158l-4.503 9.862h-.93l-1.084-7.82-.009-.547-.21.556-3.773 7.811h-.93l-1.048-9.862 1.02-.009zm17.18 2.269q-.045-.346-.027-.693l.082-.683q-.684.738-1.568 1.157-.875.42-1.896.401-1.248-.018-2.032-.783-.775-.775-.693-1.942.073-.975.666-1.686.601-.72 1.704-1.112 1.103-.401 2.47-.401l2.014.01.164-1.131q.11-1.012-.437-1.623-.547-.61-1.613-.647-1.076-.018-1.878.538-.793.547-.993 1.45h-1.067q.182-1.295 1.33-2.106 1.15-.82 2.717-.802 1.522.036 2.342.92.83.884.675 2.297l-.82 4.959-.073.793q-.028.492.073.975l-.019.11zm-3.226-.775q1.002.037 1.914-.474.92-.52 1.522-1.467l.374-2.178-1.741-.01q-1.66 0-2.707.593-1.048.583-1.158 1.677-.082.802.42 1.322.51.52 1.376.537zm10.053-.829l4.22-8.258h1.212l-6.015 11.448q-.666 1.33-1.413 1.887-.738.556-1.65.538-.346-.019-.875-.146l.11-.893.547.063q1.53.064 2.415-1.804l.693-1.377-1.905-9.716h1.139zm7.21-2.087h-1.003l1.604-9.58h1.13zm-1.705 3.053q.019-.31.256-.529.236-.218.519-.218.32-.01.52.21.21.218.182.537-.018.3-.246.51-.228.201-.538.21-.31.01-.51-.191-.2-.21-.183-.529z" style="-inkscape-font-specification:'Roboto Light Italic'" aria-label="agent-based modeling, the right way!" font-weight="300" font-size="18.667" font-family="Roboto" letter-spacing="0" word-spacing="0" fill="#4285f4" font-style="italic"/></g></svg>