<svg xmlns="http://www.w3.org/2000/svg" viewBox="0 0 286.302 91.706" width="286.302" height="91.706"><g style="line-height:25px;-inkscape-font-specification:'Roboto Medium'"><path d="M125.11 44.584h-12.938v8.133h15.281v6.328h-23.507V24.92H127.5v6.352h-15.328v7.195h12.938zm14.93 5.063l4.007-15.961h8.32l-8.273 25.36h-8.062l-8.274-25.36h8.344zm13.359-3.516q0-3.797 1.476-6.75 1.477-2.977 4.242-4.57 2.766-1.594 6.493-1.594 5.695 0 8.976 3.539 3.281 3.516 3.281 9.586v.281q0 5.93-3.304 9.422-3.281 3.469-8.906 3.469-5.415 0-8.696-3.235-3.281-3.257-3.539-8.812zm7.898.492q0 3.516 1.102 5.156 1.101 1.641 3.258 1.641 4.218 0 4.312-6.492v-.797q0-6.82-4.36-6.82-3.96 0-4.288 5.883zm43.641-.07q0 5.906-2.672 9.445-2.649 3.516-7.172 3.516-3.492 0-5.742-2.555v11.836h-7.899v-35.11h7.383l.235 2.344q2.273-2.812 5.976-2.812 4.688 0 7.29 3.469 2.6 3.445 2.6 9.492zm-7.899-.492q0-6.75-3.937-6.75-2.813 0-3.75 2.015v9.985q1.031 2.11 3.797 2.11 3.773 0 3.89-6.517zm19.688 12.984h-7.922v-36h7.922zm17.156.469q-5.836 0-9.445-3.469-3.61-3.492-3.61-9.07v-.656q0-3.891 1.43-6.868 1.453-2.976 4.219-4.593 2.765-1.641 6.562-1.641 5.344 0 8.438 3.328 3.094 3.305 3.094 9.234v3.07h-15.704q.422 2.134 1.852 3.352 1.43 1.22 3.703 1.22 3.75 0 5.86-2.626l3.609 4.266q-1.477 2.039-4.195 3.258-2.696 1.195-5.813 1.195zm-.89-20.203q-3.47 0-4.126 4.593h7.97v-.609q.046-1.898-.962-2.93-1.008-1.054-2.883-1.054zm25.054 1.359l3.68-6.984h8.203l-6.68 12.351 7.008 13.008h-8.25l-3.984-7.5-3.914 7.5h-8.297l7.031-13.008-6.656-12.351h8.297z" style="-inkscape-font-specification:'Roboto Heavy'" aria-label="Evoplex" font-weight="900" font-size="48" font-family="Roboto" letter-spacing="0" word-spacing="0" fill="#4285f4"/></g><g transform="translate(9.728 5.182) scale(.82402)"><path d="M66.481 43.431l-4.576-2.477-18.722.132-.092-20.05-2.095-4.543.199 39.655-21.689 19.256 3.193 3.07 19.208-19.261 41.912-.413-4.52-2.364-36.046.27-.058-13.12z" fill="#a1c2fa"/><circle r="46.966" cy="49.438" cx="49.438" fill="none" stroke="#4285f4" stroke-width="4.944"/><g fill-rule="evenodd"><path d="M41.977 10.756a5.482 5.482 0 0 0-5.455 5.51 5.482 5.482 0 0 0 5.51 5.455 5.482 5.482 0 0 0 5.455-5.51 5.482 5.482 0 0 0-5.51-5.455z" fill="#a1c2fa"/><path d="M66.266 36.64a5.482 5.482 0 0 0-5.455 5.51 5.482 5.482 0 0 0 5.51 5.456 5.482 5.482 0 0 0 5.455-5.51 5.482 5.482 0 0 0-5.51-5.455z" fill="#4285f4"/><path d="M83.489 51.995a5.482 5.482 0 0 0-5.455 5.51 5.482 5.482 0 0 0 5.51 5.455 5.482 5.482 0 0 0 5.455-5.51 5.482 5.482 0 0 0-5.51-5.455zM25.577 66.272a6.853 6.853 0 0 0-6.819 6.888 6.853 6.853 0 0 0 6.888 6.818 6.853 6.853 0 0 0 6.818-6.887 6.853 6.853 0 0 0-6.887-6.819z" fill="#a1c2fa"/></g></g></svg>