<svg xmlns="http://www.w3.org/2000/svg" viewBox="0 0 98.876 98.876" width="98.876" height="98.876"><path d="M66.481 43.431l-4.576-2.477-18.722.132-.092-20.05-2.095-4.543.199 39.655-21.689 19.256 3.193 3.07 19.208-19.261 41.912-.413-4.52-2.364-36.046.27-.058-13.12z" fill="#a1c2fa"/><g fill-rule="evenodd"><path d="M41.977 10.756a5.482 5.482 0 0 0-5.455 5.51 5.482 5.482 0 0 0 5.51 5.455 5.482 5.482 0 0 0 5.455-5.51 5.482 5.482 0 0 0-5.51-5.455z" fill="#a1c2fa"/><path d="M66.266 36.64a5.482 5.482 0 0 0-5.455 5.51 5.482 5.482 0 0 0 5.51 5.456 5.482 5.482 0 0 0 5.455-5.51 5.482 5.482 0 0 0-5.51-5.455z" fill="#4285f4"/><path d="M83.489 51.995a5.482 5.482 0 0 0-5.455 5.51 5.482 5.482 0 0 0 5.51 5.455 5.482 5.482 0 0 0 5.455-5.51 5.482 5.482 0 0 0-5.51-5.455zM25.577 66.272a6.853 6.853 0 0 0-6.819 6.888 6.853 6.853 0 0 0 6.888 6.818 6.853 6.853 0 0 0 6.818-6.887 6.853 6.853 0 0 0-6.887-6.819z" fill="#a1c2fa"/></g><circle cx="49.438" cy="49.438" r="46.966" fill="none" stroke="#4285f4" stroke-width="4.944"/></svg>